<svg xmlns="http://www.w3.org/2000/svg" width="520" height="430" viewBox="0 0 520 430" font-family="-apple-system, 'Segoe UI', 'Hiragino Sans', 'Noto Sans JP', sans-serif">
  <rect width="520" height="430" rx="14" fill="#f5f6f8"/>
  <!-- toolbar with extension icon -->
  <rect x="24" y="20" width="472" height="40" rx="10" fill="#eceef1"/>
  <circle cx="430" cy="40" r="14" fill="#111418"/>
  <text x="430" y="46" font-size="14" text-anchor="middle">🎟️</text>
  <path d="M430 56 l-8 14 h16 z" fill="#15181d"/>
  <text x="60" y="45" font-size="12" fill="#7a828d">ツールバーの 🎟️ アイコンをクリック →</text>

  <!-- popup -->
  <rect x="180" y="74" width="300" height="336" rx="16" fill="#15181d" stroke="#2a2f37" stroke-width="1.5"/>
  <text x="204" y="108" font-size="14" fill="#ffffff" font-weight="700">🎟️ TicketEscape</text>
  <rect x="204" y="124" width="252" height="74" rx="8" fill="#1f242b"/>
  <text x="220" y="150" font-size="13.5" fill="#e8ebef" font-weight="600">〇〇 LIVE TOUR 2026</text>
  <text x="220" y="174" font-size="11.5" fill="#8b94a0">2026/07/01 10:00 (JST)</text>
  <text x="220" y="190" font-size="11.5" fill="#8b94a0">一般チケット ×2</text>

  <text x="204" y="228" font-size="11.5" fill="#8b94a0">発売までのカウントダウン</text>
  <rect x="204" y="238" width="252" height="56" rx="10" fill="#1f242b"/>
  <text x="330" y="276" font-size="26" fill="#4c8dff" text-anchor="middle" font-weight="700" font-family="monospace">02:14:33</text>

  <rect x="204" y="312" width="252" height="42" rx="9" fill="#1f242b" stroke="#2a2f37"/>
  <text x="330" y="338" font-size="13" fill="#e8ebef" text-anchor="middle">詳細コンソールを開く</text>
  <rect x="204" y="362" width="252" height="34" rx="9" fill="transparent" stroke="#5a3a3a"/>
  <text x="330" y="384" font-size="12" fill="#d98a8a" text-anchor="middle">予約取り消し</text>
</svg>
